{
  "accessors": [
    {
      "bufferView": 2,
      "componentType": 5126,
      "count": 65532,
      "max": [
        26.3983154296875,
        20.279296875,
        6.814453125
      ],
      "min": [
        0.0,
        0.0,
        1.046875
      ],
      "type": "VEC3"
    },
    {
      "bufferView": 2,
      "byteOffset": 786384,
      "componentType": 5126,
      "count": 65532,
      "max": [
        0.9999882578849792,
        0.9997122287750244,
        0.4185529053211212
      ],
      "min": [
        -0.9998005032539368,
        -0.9999880194664001,
        -0.9999955296516418
      ],
      "type": "VEC3"
    },
    {
      "bufferView": 1,
      "componentType": 5126,
      "count": 65532,
      "max": [
        0.9878489971160889,
        0.9990159869194031
      ],
      "min": [
        0.0010270000202581286,
        0.09334799647331238
      ],
      "type": "VEC2"
    },
    {
      "bufferView": 0,
      "componentType": 5125,
      "count": 369861,
      "type": "SCALAR"
    },
    {
      "bufferView": 2,
      "byteOffset": 1572768,
      "componentType": 5126,
      "count": 46189,
      "max": [
        26.45654296875,
        20.8515625,
        6.4609375
      ],
      "min": [
        0.0689697265625,
        0.005859375,
        0.0
      ],
      "type": "VEC3"
    },
    {
      "bufferView": 2,
      "byteOffset": 2127036,
      "componentType": 5126,
      "count": 46189,
      "max": [
        1.0,
        0.9997122287750244,
        0.6381710767745972
      ],
      "min": [
        -0.999984622001648,
        -0.9999993443489075,
        -0.9999956488609314
      ],
      "type": "VEC3"
    },
    {
      "bufferView": 1,
      "byteOffset": 524256,
      "componentType": 5126,
      "count": 46189,
      "max": [
        0.9855530261993408,
        0.999019980430603
      ],
      "min": [
        0.000977999996393919,
        0.09367600083351135
      ],
      "type": "VEC2"
    },
    {
      "bufferView": 0,
      "byteOffset": 1479444,
      "componentType": 5125,
      "count": 245655,
      "type": "SCALAR"
    },
    {
      "bufferView": 2,
      "byteOffset": 2681304,
      "componentType": 5126,
      "count": 65532,
      "max": [
        26.5509033203125,
        20.8603515625,
        5.91015625
      ],
      "min": [
        0.8551025390625,
        0.123046875,
        0.712890625
      ],
      "type": "VEC3"
    },
    {
      "bufferView": 2,
      "byteOffset": 3467688,
      "componentType": 5126,
      "count": 65532,
      "max": [
        0.999872624874115,
        0.9999330043792725,
        0.37063881754875183
      ],
      "min": [
        -0.9976644515991211,
        -0.9992854595184326,
        -0.9999901056289673
      ],
      "type": "VEC3"
    },
    {
      "bufferView": 1,
      "byteOffset": 893768,
      "componentType": 5126,
      "count": 65532,
      "max": [
        0.9976530075073242,
        0.9990000128746033
      ],
      "min": [
        0.00101500004529953,
        0.13647900521755219
      ],
      "type": "VEC2"
    },
    {
      "bufferView": 0,
      "byteOffset": 2462064,
      "componentType": 5125,
      "count": 354138,
      "type": "SCALAR"
    },
    {
      "bufferView": 2,
      "byteOffset": 4254072,
      "componentType": 5126,
      "count": 45425,
      "max": [
        13.4573974609375,
        20.4052734375,
        4.470703125
      ],
      "min": [
        0.310546875,
        0.078125,
        0.08984375
      ],
      "type": "VEC3"
    },
    {
      "bufferView": 2,
      "byteOffset": 4799172,
      "componentType": 5126,
      "count": 45425,
      "max": [
        0.999978244304657,
        0.9992372393608093,
        0.281840056180954
      ],
      "min": [
        -0.9998849034309387,
        -0.9996726512908936,
        -0.9999982118606567
      ],
      "type": "VEC3"
    },
    {
      "bufferView": 1,
      "byteOffset": 1418024,
      "componentType": 5126,
      "count": 45425,
      "max": [
        0.9976530075073242,
        0.9655939936637878
      ],
      "min": [
        0.0021669999696314335,
        0.14531299471855164
      ],
      "type": "VEC2"
    },
    {
      "bufferView": 0,
      "byteOffset": 3878616,
      "componentType": 5125,
      "count": 220599,
      "type": "SCALAR"
    }
  ],
  "asset": {
    "extras": {
      "author": "Geoffrey Marchal (https://sketchfab.com/geoffreymarchal)",
      "license": "CC-BY-NC-SA-4.0 (http://creativecommons.org/licenses/by-nc-sa/4.0/)",
      "source": "https://sketchfab.com/3d-models/cupid-at-sea-851ea4bc84584fe592773dbf29f6148b",
      "title": "Cupid at sea"
    },
    "generator": "Sketchfab-15.12.0",
    "version": "2.0"
  },
  "bufferViews": [
    {
      "buffer": 0,
      "byteLength": 4761012,
      "name": "floatBufferViews",
      "target": 34963
    },
    {
      "buffer": 0,
      "byteLength": 1781424,
      "byteOffset": 4761012,
      "byteStride": 8,
      "name": "floatBufferViews",
      "target": 34962
    },
    {
      "buffer": 0,
      "byteLength": 5344272,
      "byteOffset": 6542436,
      "byteStride": 12,
      "name": "floatBufferViews",
      "target": 34962
    }
  ],
  "buffers": [
    {
      "byteLength": 11886708,
      "uri": "scene.bin"
    }
  ],
  "images": [
    {
      "uri": "textures/Material_0_baseColor.jpeg"
    },
    {
      "uri": "textures/Material_1_baseColor.jpeg"
    }
  ],
  "materials": [
    {
      "doubleSided": true,
      "name": "Material_0",
      "pbrMetallicRoughness": {
        "baseColorTexture": {
          "index": 0
        },
        "metallicFactor": 0.0,
        "roughnessFactor": 0.52
      }
    },
    {
      "doubleSided": true,
      "name": "Material_1",
      "pbrMetallicRoughness": {
        "baseColorTexture": {
          "index": 1
        },
        "metallicFactor": 0.0,
        "roughnessFactor": 0.6
      }
    }
  ],
  "meshes": [
    {
      "name": "Object_0",
      "primitives": [
        {
          "attributes": {
            "NORMAL": 1,
            "POSITION": 0,
            "TEXCOORD_0": 2
          },
          "indices": 3,
          "material": 0,
          "mode": 4
        }
      ]
    },
    {
      "name": "Object_1",
      "primitives": [
        {
          "attributes": {
            "NORMAL": 5,
            "POSITION": 4,
            "TEXCOORD_0": 6
          },
          "indices": 7,
          "material": 0,
          "mode": 4
        }
      ]
    },
    {
      "name": "Object_2",
      "primitives": [
        {
          "attributes": {
            "NORMAL": 9,
            "POSITION": 8,
            "TEXCOORD_0": 10
          },
          "indices": 11,
          "material": 1,
          "mode": 4
        }
      ]
    },
    {
      "name": "Object_3",
      "primitives": [
        {
          "attributes": {
            "NORMAL": 13,
            "POSITION": 12,
            "TEXCOORD_0": 14
          },
          "indices": 15,
          "material": 1,
          "mode": 4
        }
      ]
    }
  ],
  "nodes": [
    {
      "children": [
        1
      ],
      "matrix": [
        0.9841842651367188,
        0.017582792788743935,
        0.1762731671333313,
        0.0,
        0.02804216556251049,
        -0.9979790449142456,
        -0.05702171474695228,
        0.0,
        0.17491433024406433,
        0.06106295436620734,
        -0.982688307762146,
        0.0,
        0.0,
        0.0,
        0.0,
        1.0
      ],
      "name": "Sketchfab_model"
    },
    {
      "children": [
        2,
        3,
        4,
        5
      ],
      "matrix": [
        1.0,
        0.0,
        0.0,
        0.0,
        0.0,
        1.0,
        0.0,
        0.0,
        0.0,
        0.0,
        1.0,
        0.0,
        -1310.384033203125,
        12111.494140625,
        -17421.482421875,
        1.0
      ],
      "name": "a379.obj.cleaner.gles"
    },
    {
      "mesh": 0,
      "name": "Object_2"
    },
    {
      "mesh": 1,
      "name": "Object_3"
    },
    {
      "mesh": 2,
      "name": "Object_4"
    },
    {
      "mesh": 3,
      "name": "Object_5"
    }
  ],
  "samplers": [
    {
      "magFilter": 9729,
      "minFilter": 9987,
      "wrapS": 10497,
      "wrapT": 10497
    }
  ],
  "scene": 0,
  "scenes": [
    {
      "name": "Sketchfab_Scene",
      "nodes": [
        0
      ]
    }
  ],
  "textures": [
    {
      "sampler": 0,
      "source": 0
    },
    {
      "sampler": 0,
      "source": 1
    }
  ]
}
