{
  "accessors": [
    {
      "bufferView": 2,
      "componentType": 5126,
      "count": 3649,
      "max": [
        2.3959012031555176,
        1.0703160762786865,
        1.2975317239761353
      ],
      "min": [
        -1.9476478099822998,
        -1.0703157186508179,
        -1.2686924934387207
      ],
      "type": "VEC3"
    },
    {
      "bufferView": 2,
      "byteOffset": 43788,
      "componentType": 5126,
      "count": 3649,
      "max": [
        0.9976059198379517,
        0.9999929666519165,
        0.9999048709869385
      ],
      "min": [
        -0.9978410601615906,
        -0.9999929666519165,
        -0.9999603033065796
      ],
      "type": "VEC3"
    },
    {
      "bufferView": 1,
      "componentType": 5126,
      "count": 3649,
      "max": [
        0.8787599802017212,
        1.0000001192092896
      ],
      "min": [
        0.0,
        0.0
      ],
      "type": "VEC2"
    },
    {
      "bufferView": 0,
      "componentType": 5125,
      "count": 13392,
      "type": "SCALAR"
    },
    {
      "bufferView": 2,
      "byteOffset": 87576,
      "componentType": 5126,
      "count": 3649,
      "max": [
        1.8615096807479858,
        1.0703160762786865,
        0.5994272828102112
      ],
      "min": [
        -3.5981173515319824,
        -1.0703155994415283,
        -1.227766990661621
      ],
      "type": "VEC3"
    },
    {
      "bufferView": 2,
      "byteOffset": 131364,
      "componentType": 5126,
      "count": 3649,
      "max": [
        0.9968248605728149,
        0.9999923706054688,
        0.9996352195739746
      ],
      "min": [
        -0.9976605772972107,
        -0.9999923706054688,
        -0.9995805025100708
      ],
      "type": "VEC3"
    },
    {
      "bufferView": 1,
      "byteOffset": 29192,
      "componentType": 5126,
      "count": 3649,
      "max": [
        0.8787599802017212,
        1.0000001192092896
      ],
      "min": [
        0.0,
        0.0
      ],
      "type": "VEC2"
    },
    {
      "bufferView": 0,
      "byteOffset": 53568,
      "componentType": 5125,
      "count": 13392,
      "type": "SCALAR"
    },
    {
      "bufferView": 2,
      "byteOffset": 175152,
      "componentType": 5126,
      "count": 3649,
      "max": [
        2.680352210998535,
        1.0738601684570313,
        1.6906987428665161
      ],
      "min": [
        -2.7935631275177,
        -1.0842726230621338,
        -0.07791554927825928
      ],
      "type": "VEC3"
    },
    {
      "bufferView": 2,
      "byteOffset": 218940,
      "componentType": 5126,
      "count": 3649,
      "max": [
        0.9968584775924683,
        0.9999926090240479,
        0.9999998807907104
      ],
      "min": [
        -0.9767440557479858,
        -0.9999926090240479,
        -0.9999803304672241
      ],
      "type": "VEC3"
    },
    {
      "bufferView": 1,
      "byteOffset": 58384,
      "componentType": 5126,
      "count": 3649,
      "max": [
        0.8787599802017212,
        1.0000001192092896
      ],
      "min": [
        0.0,
        0.0
      ],
      "type": "VEC2"
    },
    {
      "bufferView": 0,
      "byteOffset": 107136,
      "componentType": 5125,
      "count": 13392,
      "type": "SCALAR"
    },
    {
      "bufferView": 2,
      "byteOffset": 262728,
      "componentType": 5126,
      "count": 552,
      "max": [
        1.0,
        1.0,
        1.0
      ],
      "min": [
        -0.9999998211860657,
        -1.0,
        -1.0
      ],
      "type": "VEC3"
    },
    {
      "bufferView": 2,
      "byteOffset": 269352,
      "componentType": 5126,
      "count": 552,
      "max": [
        0.958209216594696,
        0.958209216594696,
        0.9908391833305359
      ],
      "min": [
        -0.958209216594696,
        -0.958209216594696,
        -0.9908391237258911
      ],
      "type": "VEC3"
    },
    {
      "bufferView": 1,
      "byteOffset": 87576,
      "componentType": 5126,
      "count": 552,
      "max": [
        0.9548843502998352,
        0.9365310668945313
      ],
      "min": [
        0.9548842906951904,
        0.9365310668945313
      ],
      "type": "VEC2"
    },
    {
      "bufferView": 0,
      "byteOffset": 160704,
      "componentType": 5125,
      "count": 792,
      "type": "SCALAR"
    },
    {
      "bufferView": 2,
      "byteOffset": 275976,
      "componentType": 5126,
      "count": 552,
      "max": [
        1.0,
        1.0,
        1.0
      ],
      "min": [
        -0.9999998211860657,
        -1.0,
        -1.0
      ],
      "type": "VEC3"
    },
    {
      "bufferView": 2,
      "byteOffset": 282600,
      "componentType": 5126,
      "count": 552,
      "max": [
        0.958209216594696,
        0.958209216594696,
        0.9908391833305359
      ],
      "min": [
        -0.958209216594696,
        -0.958209216594696,
        -0.9908391237258911
      ],
      "type": "VEC3"
    },
    {
      "bufferView": 1,
      "byteOffset": 91992,
      "componentType": 5126,
      "count": 552,
      "max": [
        0.9548843502998352,
        0.9365310668945313
      ],
      "min": [
        0.9548842906951904,
        0.9365310668945313
      ],
      "type": "VEC2"
    },
    {
      "bufferView": 0,
      "byteOffset": 163872,
      "componentType": 5125,
      "count": 792,
      "type": "SCALAR"
    },
    {
      "bufferView": 2,
      "byteOffset": 289224,
      "componentType": 5126,
      "count": 552,
      "max": [
        1.0,
        1.0,
        1.0
      ],
      "min": [
        -0.9999998211860657,
        -1.0,
        -1.0
      ],
      "type": "VEC3"
    },
    {
      "bufferView": 2,
      "byteOffset": 295848,
      "componentType": 5126,
      "count": 552,
      "max": [
        0.958209216594696,
        0.958209216594696,
        0.9908391833305359
      ],
      "min": [
        -0.958209216594696,
        -0.958209216594696,
        -0.9908391237258911
      ],
      "type": "VEC3"
    },
    {
      "bufferView": 1,
      "byteOffset": 96408,
      "componentType": 5126,
      "count": 552,
      "max": [
        0.9548843502998352,
        0.9365310668945313
      ],
      "min": [
        0.9548842906951904,
        0.9365310668945313
      ],
      "type": "VEC2"
    },
    {
      "bufferView": 0,
      "byteOffset": 167040,
      "componentType": 5125,
      "count": 792,
      "type": "SCALAR"
    },
    {
      "bufferView": 2,
      "byteOffset": 302472,
      "componentType": 5126,
      "count": 552,
      "max": [
        1.0,
        1.0,
        1.0
      ],
      "min": [
        -0.9999998211860657,
        -1.0,
        -1.0
      ],
      "type": "VEC3"
    },
    {
      "bufferView": 2,
      "byteOffset": 309096,
      "componentType": 5126,
      "count": 552,
      "max": [
        0.958209216594696,
        0.958209216594696,
        0.9908391833305359
      ],
      "min": [
        -0.958209216594696,
        -0.958209216594696,
        -0.9908391237258911
      ],
      "type": "VEC3"
    },
    {
      "bufferView": 1,
      "byteOffset": 100824,
      "componentType": 5126,
      "count": 552,
      "max": [
        0.9548843502998352,
        0.9365310668945313
      ],
      "min": [
        0.9548842906951904,
        0.9365310668945313
      ],
      "type": "VEC2"
    },
    {
      "bufferView": 0,
      "byteOffset": 170208,
      "componentType": 5125,
      "count": 792,
      "type": "SCALAR"
    },
    {
      "bufferView": 2,
      "byteOffset": 315720,
      "componentType": 5126,
      "count": 552,
      "max": [
        1.0,
        1.0,
        1.0
      ],
      "min": [
        -0.9999998211860657,
        -1.0,
        -1.0
      ],
      "type": "VEC3"
    },
    {
      "bufferView": 2,
      "byteOffset": 322344,
      "componentType": 5126,
      "count": 552,
      "max": [
        0.958209216594696,
        0.958209216594696,
        0.9908391833305359
      ],
      "min": [
        -0.958209216594696,
        -0.958209216594696,
        -0.9908391237258911
      ],
      "type": "VEC3"
    },
    {
      "bufferView": 1,
      "byteOffset": 105240,
      "componentType": 5126,
      "count": 552,
      "max": [
        0.9548843502998352,
        0.9365310668945313
      ],
      "min": [
        0.9548842906951904,
        0.9365310668945313
      ],
      "type": "VEC2"
    },
    {
      "bufferView": 0,
      "byteOffset": 173376,
      "componentType": 5125,
      "count": 792,
      "type": "SCALAR"
    },
    {
      "bufferView": 2,
      "byteOffset": 328968,
      "componentType": 5126,
      "count": 552,
      "max": [
        1.0,
        1.0,
        1.0
      ],
      "min": [
        -0.9999998211860657,
        -1.0,
        -1.0
      ],
      "type": "VEC3"
    },
    {
      "bufferView": 2,
      "byteOffset": 335592,
      "componentType": 5126,
      "count": 552,
      "max": [
        0.958209216594696,
        0.958209216594696,
        0.9908391833305359
      ],
      "min": [
        -0.958209216594696,
        -0.958209216594696,
        -0.9908391237258911
      ],
      "type": "VEC3"
    },
    {
      "bufferView": 1,
      "byteOffset": 109656,
      "componentType": 5126,
      "count": 552,
      "max": [
        0.9548843502998352,
        0.9365310668945313
      ],
      "min": [
        0.9548842906951904,
        0.9365310668945313
      ],
      "type": "VEC2"
    },
    {
      "bufferView": 0,
      "byteOffset": 176544,
      "componentType": 5125,
      "count": 792,
      "type": "SCALAR"
    }
  ],
  "asset": {
    "extras": {
      "author": "Alessandro.Diamanti (https://sketchfab.com/diamanti.alessandro)",
      "license": "CC-BY-4.0 (http://creativecommons.org/licenses/by/4.0/)",
      "source": "https://sketchfab.com/3d-models/cartoon-dolphins-9d1f27d8ec6e4eeb8924f75f9c6fe360",
      "title": "Cartoon Dolphins"
    },
    "generator": "Sketchfab-15.5.0",
    "version": "2.0"
  },
  "bufferViews": [
    {
      "buffer": 0,
      "byteLength": 179712,
      "name": "floatBufferViews",
      "target": 34963
    },
    {
      "buffer": 0,
      "byteLength": 114072,
      "byteOffset": 179712,
      "byteStride": 8,
      "name": "floatBufferViews",
      "target": 34962
    },
    {
      "buffer": 0,
      "byteLength": 342216,
      "byteOffset": 293784,
      "byteStride": 12,
      "name": "floatBufferViews",
      "target": 34962
    }
  ],
  "buffers": [
    {
      "byteLength": 636000,
      "uri": "scene.bin"
    }
  ],
  "extensionsUsed": [
    "KHR_materials_specular"
  ],
  "images": [
    {
      "uri": "textures/Delfino_baseColor.png"
    }
  ],
  "materials": [
    {
      "doubleSided": true,
      "extensions": {
        "KHR_materials_specular": {
          "specularColorFactor": [
            1.0,
            1.0,
            1.0
          ],
          "specularFactor": 0.4790178146
        }
      },
      "name": "Delfino",
      "pbrMetallicRoughness": {
        "baseColorTexture": {
          "index": 0
        },
        "metallicFactor": 0.0,
        "roughnessFactor": 0.6543827929524808
      }
    }
  ],
  "meshes": [
    {
      "name": "Delfino_Delfino_0",
      "primitives": [
        {
          "attributes": {
            "NORMAL": 1,
            "POSITION": 0,
            "TEXCOORD_0": 2
          },
          "indices": 3,
          "material": 0,
          "mode": 4
        }
      ]
    },
    {
      "name": "Delfino.002_Delfino_0",
      "primitives": [
        {
          "attributes": {
            "NORMAL": 5,
            "POSITION": 4,
            "TEXCOORD_0": 6
          },
          "indices": 7,
          "material": 0,
          "mode": 4
        }
      ]
    },
    {
      "name": "Delfino.001_Delfino_0",
      "primitives": [
        {
          "attributes": {
            "NORMAL": 9,
            "POSITION": 8,
            "TEXCOORD_0": 10
          },
          "indices": 11,
          "material": 0,
          "mode": 4
        }
      ]
    },
    {
      "name": "Sphere_Delfino_0",
      "primitives": [
        {
          "attributes": {
            "NORMAL": 13,
            "POSITION": 12,
            "TEXCOORD_0": 14
          },
          "indices": 15,
          "material": 0,
          "mode": 4
        }
      ]
    },
    {
      "name": "Sphere.001_Delfino_0",
      "primitives": [
        {
          "attributes": {
            "NORMAL": 17,
            "POSITION": 16,
            "TEXCOORD_0": 18
          },
          "indices": 19,
          "material": 0,
          "mode": 4
        }
      ]
    },
    {
      "name": "Sphere.002_Delfino_0",
      "primitives": [
        {
          "attributes": {
            "NORMAL": 21,
            "POSITION": 20,
            "TEXCOORD_0": 22
          },
          "indices": 23,
          "material": 0,
          "mode": 4
        }
      ]
    },
    {
      "name": "Sphere.003_Delfino_0",
      "primitives": [
        {
          "attributes": {
            "NORMAL": 25,
            "POSITION": 24,
            "TEXCOORD_0": 26
          },
          "indices": 27,
          "material": 0,
          "mode": 4
        }
      ]
    },
    {
      "name": "Sphere.004_Delfino_0",
      "primitives": [
        {
          "attributes": {
            "NORMAL": 29,
            "POSITION": 28,
            "TEXCOORD_0": 30
          },
          "indices": 31,
          "material": 0,
          "mode": 4
        }
      ]
    },
    {
      "name": "Sphere.005_Delfino_0",
      "primitives": [
        {
          "attributes": {
            "NORMAL": 33,
            "POSITION": 32,
            "TEXCOORD_0": 34
          },
          "indices": 35,
          "material": 0,
          "mode": 4
        }
      ]
    }
  ],
  "nodes": [
    {
      "children": [
        1
      ],
      "matrix": [
        1.0,
        6.842791131287157e-32,
        -2.832769343193999e-16,
        0.0,
        -2.832769343193999e-16,
        3.828568672208042e-16,
        -1.0,
        0.0,
        4.002661120305586e-32,
        1.0,
        3.828568672208042e-16,
        0.0,
        0.0,
        0.0,
        0.0,
        1.0
      ],
      "name": "Sketchfab_model"
    },
    {
      "children": [
        2
      ],
      "matrix": [
        0.009999999776482582,
        0.0,
        0.0,
        0.0,
        0.0,
        0.0,
        0.009999999776482582,
        0.0,
        0.0,
        -0.009999999776482582,
        0.0,
        0.0,
        0.0,
        0.0,
        0.0,
        1.0
      ],
      "name": "cb69c9d99b0b4a16bde4cf2c1a5d490d.fbx"
    },
    {
      "children": [
        3,
        5,
        7,
        9,
        11,
        13,
        15,
        17,
        19
      ],
      "name": "RootNode"
    },
    {
      "children": [
        4
      ],
      "matrix": [
        100.00001525878906,
        0.0,
        0.0,
        0.0,
        -0.0,
        -1.6292070425155422e-05,
        -100.00001525878774,
        0.0,
        0.0,
        100.00001525878774,
        -1.6292070425155422e-05,
        0.0,
        -52.85844802856445,
        273.2831115722656,
        -81.26466369628906,
        1.0
      ],
      "name": "Delfino"
    },
    {
      "mesh": 0,
      "name": "Delfino_Delfino_0"
    },
    {
      "children": [
        6
      ],
      "matrix": [
        100.00001525878906,
        0.0,
        0.0,
        0.0,
        -0.0,
        -1.6292070425155422e-05,
        -100.00001525878774,
        0.0,
        0.0,
        100.00001525878774,
        -1.6292070425155422e-05,
        0.0,
        -118.39083099365234,
        -61.7764892578125,
        60.42680740356445,
        1.0
      ],
      "name": "Delfino.002"
    },
    {
      "mesh": 1,
      "name": "Delfino.002_Delfino_0"
    },
    {
      "children": [
        8
      ],
      "matrix": [
        98.85978706437746,
        3.5068167562883894,
        -14.643983874025764,
        0.0,
        -11.935210901857852,
        -41.04726786872319,
        -90.40283480755156,
        0.0,
        -9.181216346143698,
        91.11983339881382,
        -40.16069257094199,
        0.0,
        40.341880798339844,
        69.4642333984375,
        291.48089599609375,
        1.0
      ],
      "name": "Delfino.001"
    },
    {
      "mesh": 2,
      "name": "Delfino.001_Delfino_0"
    },
    {
      "children": [
        10
      ],
      "matrix": [
        2.6949679851531982,
        0.0,
        0.0,
        0.0,
        -0.0,
        -4.390660150803941e-07,
        -2.6949679851531627,
        0.0,
        0.0,
        2.6949679851531627,
        -4.390660150803941e-07,
        0.0,
        -402.500732421875,
        -76.8290023803711,
        81.91980743408203,
        1.0
      ],
      "name": "Sphere"
    },
    {
      "mesh": 3,
      "name": "Sphere_Delfino_0"
    },
    {
      "children": [
        12
      ],
      "matrix": [
        2.6949679851531982,
        0.0,
        0.0,
        0.0,
        -0.0,
        -4.390660150803941e-07,
        -2.6949679851531627,
        0.0,
        0.0,
        2.6949679851531627,
        -4.390660150803941e-07,
        0.0,
        -399.71063232421875,
        -77.1069107055664,
        38.199546813964844,
        1.0
      ],
      "name": "Sphere.001"
    },
    {
      "mesh": 4,
      "name": "Sphere.001_Delfino_0"
    },
    {
      "children": [
        14
      ],
      "matrix": [
        2.6949679851531982,
        0.0,
        0.0,
        0.0,
        -0.0,
        -4.390660150803941e-07,
        -2.6949679851531627,
        0.0,
        0.0,
        2.6949679851531627,
        -4.390660150803941e-07,
        0.0,
        -210.0604248046875,
        221.3003692626953,
        -60.16721725463867,
        1.0
      ],
      "name": "Sphere.002"
    },
    {
      "mesh": 5,
      "name": "Sphere.002_Delfino_0"
    },
    {
      "children": [
        16
      ],
      "matrix": [
        2.6949679851531982,
        0.0,
        0.0,
        0.0,
        -0.0,
        -4.390660150803941e-07,
        -2.6949679851531627,
        0.0,
        0.0,
        2.6949679851531627,
        -4.390660150803941e-07,
        0.0,
        -207.2703399658203,
        221.0224609375,
        -103.54351043701172,
        1.0
      ],
      "name": "Sphere.003"
    },
    {
      "mesh": 6,
      "name": "Sphere.003_Delfino_0"
    },
    {
      "children": [
        18
      ],
      "matrix": [
        2.6949679851531982,
        -2.491185453539436e-16,
        5.432018305789267e-17,
        0.0,
        -5.432022888345105e-17,
        -1.1219306406726748,
        -2.450331422179557,
        0.0,
        2.4911853536169747e-16,
        2.450331422179557,
        -1.1219306406726748,
        0.0,
        -167.2931365966797,
        112.9055404663086,
        303.9562683105469,
        1.0
      ],
      "name": "Sphere.004"
    },
    {
      "mesh": 7,
      "name": "Sphere.004_Delfino_0"
    },
    {
      "children": [
        20
      ],
      "matrix": [
        2.6949679851531982,
        -2.491185453539436e-16,
        5.432018305789267e-17,
        0.0,
        -5.432022888345105e-17,
        -1.1219306406726748,
        -2.450331422179557,
        0.0,
        2.4911853536169747e-16,
        2.450331422179557,
        -1.1219306406726748,
        0.0,
        -170.636962890625,
        93.11551666259766,
        267.9776611328125,
        1.0
      ],
      "name": "Sphere.005"
    },
    {
      "mesh": 8,
      "name": "Sphere.005_Delfino_0"
    }
  ],
  "samplers": [
    {
      "magFilter": 9729,
      "minFilter": 9987,
      "wrapS": 10497,
      "wrapT": 10497
    }
  ],
  "scene": 0,
  "scenes": [
    {
      "name": "Sketchfab_Scene",
      "nodes": [
        0
      ]
    }
  ],
  "textures": [
    {
      "sampler": 0,
      "source": 0
    }
  ]
}
